<?xml version="1.0" encoding="UTF-8"?> <svg xmlns="http://www.w3.org/2000/svg" id="Layer_2" viewBox="0 0 318.62 99.36"><defs><style>.cls-1{fill:#093b64;}.cls-2{fill:#939598;}.cls-3{fill:#2e6793;}.cls-4{fill:#244f6a;}.cls-5{fill:#a2cae7;}.cls-6{fill:none;stroke:#939598;stroke-width:.55px;}</style></defs><g id="Layer_1-2"><g><polygon class="cls-3" points="140.79 19.55 145.39 19.55 145.39 46.2 141.47 46.2 126.78 27.24 126.78 46.2 122.17 46.2 122.17 19.55 126.51 19.55 140.79 37.98 140.79 19.55"></polygon><polygon class="cls-3" points="179.62 23.74 164.54 23.74 164.54 30.67 177.91 30.67 177.91 34.86 164.54 34.86 164.54 42.01 179.81 42.01 179.81 46.2 159.86 46.2 159.86 19.55 179.62 19.55 179.62 23.74"></polygon><polygon class="cls-3" points="210.38 46.2 203.38 36.11 196.33 46.2 190.97 46.2 200.67 32.65 191.35 19.55 196.87 19.55 203.49 29.11 210.15 19.55 215.52 19.55 206.23 32.57 215.9 46.2 210.38 46.2"></polygon><polygon class="cls-3" points="245.75 46.2 238.74 36.11 231.7 46.2 226.33 46.2 236.04 32.65 226.71 19.55 232.23 19.55 238.86 29.11 245.52 19.55 250.89 19.55 241.6 32.57 251.27 46.2 245.75 46.2"></polygon><g><path class="cls-3" d="m285.72,34.67c0,7.96-4.49,11.96-11.46,11.96s-11.34-4-11.34-11.73v-15.34h4.68v15.15c0,4.95,2.55,7.61,6.74,7.61s6.7-2.51,6.7-7.42v-15.34h4.68v15.11Z"></path><path class="cls-3" d="m310.05,30.74c5.63,1.37,8.57,3.39,8.57,7.84,0,5.03-3.92,8-9.52,8-4.07,0-7.92-1.41-11.12-4.26l2.82-3.35c2.55,2.21,5.1,3.46,8.41,3.46,2.89,0,4.72-1.33,4.72-3.39,0-1.94-1.07-2.97-6.02-4.11-5.67-1.37-8.87-3.05-8.87-8,0-4.64,3.81-7.77,9.1-7.77,3.88,0,6.97,1.18,9.67,3.35l-2.51,3.54c-2.4-1.79-4.8-2.74-7.23-2.74-2.74,0-4.34,1.41-4.34,3.2,0,2.09,1.22,3.01,6.32,4.23"></path><path class="cls-2" d="m148.57,87c-8.34,0-13.82-5.94-13.82-13.74s5.71-13.82,13.74-13.82c4.64,0,7.5,1.29,10.24,3.62l-2.97,3.54c-2.05-1.75-4.07-2.85-7.46-2.85-4.91,0-8.64,4.26-8.64,9.44,0,5.52,3.62,9.56,9.06,9.56,2.51,0,4.8-.8,6.44-2.02v-4.99h-6.81v-4.07h11.35v11.19c-2.63,2.25-6.4,4.15-11.12,4.15"></path><path class="cls-2" d="m190.49,86.55l-6.55-9.29h-5.86v9.29h-4.68v-26.65h11.88c6.13,0,9.9,3.24,9.9,8.45,0,4.42-2.63,7.08-6.36,8.11l7.2,10.09h-5.52Zm-5.6-22.39h-6.81v8.95h6.85c3.35,0,5.48-1.75,5.48-4.49,0-2.93-2.06-4.46-5.52-4.46"></path><path class="cls-2" d="m221.25,87c-8.18,0-13.9-6.2-13.9-13.74s5.79-13.82,13.97-13.82,13.9,6.21,13.9,13.74-5.79,13.82-13.97,13.82m0-23.26c-5.29,0-8.98,4.23-8.98,9.44s3.77,9.52,9.06,9.52,8.99-4.23,8.99-9.44-3.77-9.52-9.06-9.52"></path><path class="cls-2" d="m270.89,75.01c0,7.96-4.49,11.96-11.46,11.96s-11.34-4-11.34-11.73v-15.34h4.68v15.15c0,4.95,2.55,7.61,6.74,7.61s6.7-2.51,6.7-7.42v-15.34h4.68v15.11Z"></path><path class="cls-2" d="m294.92,77.98h-5.29v8.57h-4.68v-26.65h10.51c6.21,0,10.13,3.5,10.13,8.95,0,6.01-4.8,9.14-10.66,9.14m.15-13.82h-5.44v9.59h5.44c3.54,0,5.75-1.94,5.75-4.8,0-3.16-2.25-4.8-5.75-4.8"></path><path class="cls-3" d="m15.21,13.9c.12-.11.23-.23.35-.34-.12.11-.23.23-.35.34"></path><path class="cls-3" d="m.17,45.58c.01-.16.04-.32.05-.48-.01.16-.04.32-.05.48"></path><path class="cls-3" d="m.63,41.83c.04-.25.07-.5.12-.75-.04.25-.08.5-.12.75"></path><path class="cls-3" d="m31.33,3.51c.58-.23,1.17-.45,1.76-.66-.59.21-1.18.43-1.76.66"></path><path class="cls-3" d="m0,49.66c0,.22.01.44.02.67,0-.35,0-.7,0-1.05,0,.13-.02.25-.02.38"></path><path class="cls-3" d="m.12,52.99c-.03-.48-.06-.95-.08-1.43.02.48.04.96.08,1.43"></path><path class="cls-3" d="m.37,55.65c-.07-.54-.12-1.09-.17-1.64.05.55.11,1.09.17,1.64"></path><path class="cls-3" d="m28.08,4.93c.35-.17.7-.33,1.05-.48-.35.16-.71.32-1.05.48"></path><path class="cls-3" d="m7.69,23.13c.22-.35.45-.69.68-1.03-.23.34-.46.68-.68,1.03"></path><path class="cls-3" d="m9.72,20.18c.24-.33.48-.65.72-.97-.25.32-.48.65-.72.97"></path><path class="cls-3" d="m1.47,37.67c.07-.29.15-.59.23-.88-.08.29-.16.58-.23.88"></path><path class="cls-3" d="m4,30.13c.14-.33.29-.65.43-.97-.15.32-.29.64-.43.97"></path><path class="cls-3" d="m24.53,6.83c.24-.14.47-.28.71-.42-.24.14-.47.28-.71.42"></path><path class="cls-3" d="m5.62,26.74c.14-.27.27-.54.41-.8-.14.26-.27.53-.41.8"></path><path class="cls-3" d="m35.97,1.9c-.31.09-.61.21-.92.31.29-.09.59-.18.88-.26.01-.01.03-.03.04-.04"></path><path class="cls-3" d="m2.54,33.99c.08-.24.15-.48.23-.72-.08.24-.15.48-.23.72"></path><path class="cls-3" d="m12.5,16.73c.2-.23.41-.44.61-.67-.2.22-.41.44-.61.67"></path><path class="cls-3" d="m.76,58.26c-.1-.6-.2-1.19-.28-1.79.08.6.18,1.2.28,1.79"></path><path class="cls-3" d="m57.05,98.8c8-1.19,15.38-4.29,21.66-8.82-1.97,1.42-4.07,2.71-6.29,3.86-4.96,2.55-10.14,4.18-15.37,4.96"></path><path class="cls-3" d="m56.41,98.89c-1.08.15-2.16.26-3.25.33,1.09-.07,2.17-.19,3.25-.33"></path><path class="cls-3" d="m48.42,79.74c.59-.3,1.16-.62,1.73-.94-15.83-8.31-26.62-24.9-26.62-44.02,0-.43.02-.86.03-1.29-5.94,3.15-11.35,7.56-15.77,13.19-2.94,3.74-5.24,7.78-6.95,11.98,1.76,9.61,6.28,18.26,12.71,25.08,11.32,2.86,23.69,1.77,34.89-4"></path><path class="cls-3" d="m80.4,88.71c-.48.37-.95.75-1.45,1.11.49-.36.97-.73,1.45-1.11"></path><path class="cls-3" d="m83.9,85.68c-.29.27-.57.54-.86.81.29-.26.58-.54.86-.81"></path><path class="cls-3" d="m21.58,8.69s.03-.02.05-.03c-.02.01-.03.02-.05.03"></path><path class="cls-3" d="m86.95,82.54s-.02,0-.02,0c-.11.12-.22.25-.33.37.12-.13.24-.25.35-.38"></path><path class="cls-3" d="m85.66,83.92c-.26.27-.51.54-.77.8.26-.26.52-.53.77-.8"></path><path class="cls-3" d="m82.13,87.28c-.36.31-.71.62-1.08.91.37-.3.72-.6,1.08-.91"></path><path class="cls-3" d="m15.96,86.14c-.66-.61-1.3-1.24-1.93-1.89.63.64,1.27,1.28,1.93,1.89"></path><path class="cls-3" d="m18.98,88.71c-.71-.56-1.4-1.13-2.08-1.73.68.6,1.37,1.17,2.08,1.73"></path><path class="cls-3" d="m22.49,91.24c-.95-.62-1.88-1.27-2.78-1.96.9.68,1.83,1.33,2.78,1.96"></path><path class="cls-3" d="m18.21,11.23c.16-.13.32-.26.48-.39-.16.13-.32.26-.48.39"></path><path class="cls-3" d="m49.7,99.36c1,0,1.99-.04,2.98-.09-1.19.07-2.38.09-3.57.08.2,0,.39.02.59.02"></path><path class="cls-3" d="m40.93,98.57c-6.37-1.15-12.49-3.54-17.97-7.03,5.37,3.44,11.45,5.87,17.97,7.03"></path><path class="cls-3" d="m48.41,99.32c-2.5-.07-5-.31-7.45-.75,2.43.43,4.92.69,7.45.75"></path><path class="cls-1" d="m13.11,16.06c.68-.74,1.38-1.46,2.1-2.16-.72.69-1.42,1.42-2.1,2.16"></path><path class="cls-1" d="m15.56,13.56c.85-.81,1.74-1.58,2.65-2.33-.9.74-1.79,1.51-2.65,2.33"></path><path class="cls-1" d="m18.69,10.84c.94-.75,1.89-1.47,2.89-2.16-.99.68-1.94,1.4-2.89,2.16"></path><path class="cls-1" d="m10.61,18.98c-.06.07-.11.15-.17.23.66-.85,1.34-1.67,2.05-2.48-.64.73-1.28,1.47-1.88,2.25"></path><path class="cls-1" d="m8.37,22.1c.44-.65.89-1.29,1.35-1.92-.47.63-.92,1.27-1.35,1.92"></path><path class="cls-1" d="m.2,54.01c-.03-.34-.06-.68-.08-1.03.02.34.05.69.08,1.03"></path><path class="cls-1" d="m.05,51.55c-.02-.41-.03-.82-.03-1.23,0,.41.02.82.03,1.23"></path><path class="cls-1" d="m.48,56.47c-.04-.27-.07-.54-.1-.82.03.27.07.54.1.82"></path><path class="cls-1" d="m.82,58.66s0,0,0-.01c-.02-.13-.05-.26-.07-.39.02.13.04.27.06.4"></path><path class="cls-1" d="m6.03,25.94c.52-.96,1.08-1.89,1.66-2.81-.59.93-1.14,1.86-1.66,2.81"></path><path class="cls-1" d="m.02,49.28c0-1.24.06-2.48.15-3.7-.1,1.23-.15,2.47-.15,3.7"></path><path class="cls-1" d="m95.73,68.4c.15-.36.26-.73.39-1.09-.13.34-.27.68-.41,1.02,0,.02.01.05.02.07"></path><path class="cls-1" d="m2.78,33.27c.37-1.06.79-2.11,1.23-3.14-.44,1.04-.86,2.08-1.23,3.14"></path><path class="cls-1" d="m4.44,29.16c.37-.82.77-1.62,1.18-2.42-.42.8-.81,1.6-1.18,2.42"></path><path class="cls-1" d="m.22,45.1c.1-1.1.24-2.19.41-3.27-.17,1.09-.31,2.18-.41,3.27"></path><path class="cls-1" d="m1.7,36.79c.25-.94.53-1.88.84-2.8-.31.93-.59,1.86-.84,2.8"></path><path class="cls-1" d="m.75,41.07c.2-1.15.44-2.28.72-3.4-.28,1.13-.52,2.26-.72,3.4"></path><path class="cls-1" d="m75.36,36.67c.19-8.03-1.57-16.23-5.51-23.88-2.17-4.22-4.88-7.99-7.98-11.29-8.57-2.16-17.54-1.98-25.94.43-7.45,8.46-12.07,19.46-12.38,31.54,16.08-8.52,36.14-7.8,51.81,3.19"></path><path class="cls-1" d="m96.53,33.11c.06.17.13.34.19.51-.06-.17-.12-.34-.19-.51"></path><path class="cls-1" d="m88.94,19.2c.1.12.19.24.29.37-.09-.12-.19-.24-.29-.37"></path><path class="cls-1" d="m21.63,8.66c.94-.65,1.92-1.25,2.9-1.83-.98.58-1.96,1.18-2.9,1.83"></path><path class="cls-1" d="m91.28,22.48c.19.29.36.58.55.87-.18-.29-.36-.59-.55-.87"></path><path class="cls-1" d="m97.75,37.07c.04.14.07.27.1.41-.04-.14-.07-.28-.1-.41"></path><path class="cls-1" d="m93.09,25.5c.2.37.41.73.61,1.1-.19-.37-.4-.74-.61-1.1"></path><path class="cls-1" d="m95.08,29.47c.13.29.25.59.37.89-.12-.3-.25-.59-.37-.89"></path><path class="cls-1" d="m99.29,52.46c-.01.2-.01.41-.03.62.01-.21.02-.41.03-.62"></path><path class="cls-1" d="m98.29,59.93c-.14.68-.31,1.35-.48,2.02.17-.67.33-1.34.48-2.02"></path><path class="cls-1" d="m99.14,44.86c0,.09.02.19.03.28,0-.1-.02-.19-.03-.28"></path><path class="cls-1" d="m98.94,56.11c-.06.47-.13.94-.2,1.41.07-.47.14-.94.2-1.41"></path><path class="cls-1" d="m99.36,48.79c0,.17,0,.33,0,.49,0-.16,0-.33,0-.49"></path><path class="cls-1" d="m97.47,63.2c-.29,1.04-.62,2.08-.99,3.1.36-1.03.69-2.06.99-3.1"></path><path class="cls-1" d="m33.09,2.85c.65-.23,1.3-.45,1.96-.65-.66.2-1.31.42-1.96.65"></path><path class="cls-1" d="m67.16,3.15c.3.11.6.24.91.36-.3-.12-.6-.24-.91-.36"></path><path class="cls-1" d="m64.8,2.34c.33.1.66.22.99.33-.33-.11-.66-.23-.99-.33"></path><path class="cls-1" d="m62.47,1.65c.3.08.59.16.89.25-.3-.08-.59-.17-.89-.25"></path><path class="cls-1" d="m71.88,5.21s.05.03.08.04c-.03-.01-.05-.03-.08-.04"></path><path class="cls-1" d="m29.13,4.44c.72-.33,1.45-.64,2.19-.93-.74.29-1.47.6-2.19.93"></path><path class="cls-1" d="m25.24,6.42c.93-.53,1.88-1.02,2.84-1.49-.96.46-1.91.96-2.84,1.49"></path><path class="cls-1" d="m69.53,4.11c.21.09.41.19.61.28-.2-.09-.4-.19-.61-.28"></path><path class="cls-4" d="m23.55,33.48c.31-12.08,4.93-23.08,12.38-31.54-.29.08-.59.17-.88.26-.66.2-1.31.42-1.96.65-.59.21-1.18.43-1.76.66-.74.29-1.47.6-2.19.93-.35.16-.71.32-1.05.48-.96.47-1.91.96-2.84,1.49-.24.13-.47.28-.71.42-.99.58-1.96,1.18-2.9,1.83-.02.01-.03.02-.05.03-.99.68-1.95,1.41-2.88,2.15-.16.13-.32.26-.48.39-.91.75-1.79,1.52-2.65,2.33-.12.11-.23.23-.35.34-.72.7-1.42,1.42-2.1,2.16-.2.22-.41.44-.61.67-.71.8-1.4,1.63-2.05,2.48-.25.32-.48.65-.72.97-.46.63-.92,1.27-1.35,1.92-.23.34-.46.68-.68,1.03-.58.92-1.14,1.85-1.66,2.81-.14.27-.27.54-.41.8-.41.79-.81,1.6-1.18,2.42-.15.32-.29.64-.43.97-.44,1.03-.86,2.08-1.23,3.14-.08.24-.15.48-.23.72-.31.92-.59,1.86-.84,2.8-.08.29-.16.58-.23.88-.28,1.12-.52,2.25-.72,3.4-.04.25-.08.5-.12.75-.17,1.08-.31,2.17-.41,3.27-.02.16-.04.32-.05.48-.1,1.22-.14,2.46-.16,3.7,0,.35,0,.7,0,1.05,0,.41.02.82.03,1.23.02.48.04.96.07,1.43.02.34.05.69.08,1.03.05.55.1,1.09.17,1.64.03.27.07.55.1.82.08.6.18,1.2.28,1.79.02.13.05.26.07.39,1.71-4.2,4.01-8.23,6.95-11.98,4.43-5.63,9.83-10.04,15.77-13.19"></path><path class="cls-5" d="m97.81,61.95c-.1.42-.22.83-.34,1.25.12-.42.23-.83.34-1.25"></path><path class="cls-5" d="m53.17,99.22c-.16.01-.33.03-.49.04.16-.01.33-.03.49-.04"></path><path class="cls-5" d="m40.96,98.58s-.02,0-.03,0c0,0,.02,0,.03,0"></path><path class="cls-5" d="m49.1,99.34c-.23,0-.46-.01-.69-.02.23,0,.46.02.69.02"></path><path class="cls-5" d="m98.74,57.52c-.13.81-.28,1.61-.45,2.41.17-.8.32-1.6.45-2.41"></path><path class="cls-5" d="m96.12,67.31c.13-.34.25-.68.37-1.02-.12.34-.24.68-.37,1.02"></path><path class="cls-5" d="m86.6,82.91c-.31.34-.62.68-.94,1.01.32-.33.63-.67.94-1.01"></path><path class="cls-5" d="m84.89,84.72c-.33.33-.66.64-.99.96.33-.32.67-.63.99-.96"></path><path class="cls-5" d="m81.05,88.19c-.21.18-.44.34-.65.52.22-.17.44-.34.65-.52"></path><path class="cls-5" d="m83.03,86.49c-.3.27-.6.53-.9.79.3-.26.61-.52.9-.79"></path><path class="cls-5" d="m88.94,19.2c-4.63-5.98-10.47-10.69-16.98-13.95,2.93,1.47,5.76,3.26,8.44,5.36,3.26,2.56,6.1,5.46,8.54,8.59"></path><path class="cls-5" d="m78.95,89.82c-.08.06-.16.11-.23.16.08-.06.16-.11.23-.16"></path><path class="cls-5" d="m57.05,98.8c-.21.03-.43.06-.64.09.21-.03.43-.06.64-.09"></path><path class="cls-5" d="m77.56,38.3c-.72-.57-1.46-1.11-2.2-1.63-.4,16.99-9.52,33.25-25.22,42.12,6.9,3.62,14.74,5.68,23.07,5.68,4.75,0,9.35-.68,13.7-1.93,3.74-4.24,6.7-9.06,8.79-14.21-2.12-11.47-8.25-22.25-18.15-30.03"></path><path class="cls-5" d="m96.71,33.62c.39,1.14.73,2.29,1.04,3.46-.3-1.16-.64-2.31-1.04-3.46"></path><path class="cls-5" d="m70.14,4.39c.58.27,1.17.53,1.75.82-.58-.29-1.16-.56-1.75-.82"></path><path class="cls-5" d="m68.07,3.51c.49.19.98.39,1.46.6-.48-.21-.97-.41-1.46-.6"></path><path class="cls-5" d="m89.23,19.57c.72.95,1.4,1.92,2.04,2.9-.65-1-1.33-1.97-2.04-2.9"></path><path class="cls-5" d="m91.82,23.35c.44.71.86,1.42,1.27,2.15-.41-.73-.83-1.45-1.27-2.15"></path><path class="cls-5" d="m61.85,1.48s.02.02.02.03c.2.05.4.09.59.15-.21-.05-.41-.12-.62-.17"></path><path class="cls-5" d="m93.86,26.9c-.05-.1-.11-.19-.16-.29.49.94.96,1.9,1.39,2.87-.39-.86-.79-1.72-1.23-2.57"></path><path class="cls-5" d="m63.35,1.9c.48.14.97.28,1.45.43-.48-.15-.96-.29-1.45-.43"></path><path class="cls-5" d="m65.79,2.67c.46.16.92.31,1.37.48-.45-.17-.91-.33-1.37-.48"></path><path class="cls-5" d="m95.46,30.36c.38.91.74,1.83,1.07,2.75-.33-.92-.68-1.84-1.07-2.75"></path><path class="cls-5" d="m13.49,83.72c.17.18.36.35.54.53-.17-.17-.33-.34-.5-.52-.02,0-.03,0-.04-.01"></path><path class="cls-5" d="m99.26,53.07c-.07,1.02-.19,2.03-.32,3.04.13-1.01.25-2.02.32-3.04"></path><path class="cls-5" d="m16.91,86.98c-.32-.28-.64-.56-.95-.85.31.29.63.57.95.85"></path><path class="cls-5" d="m22.96,91.54c-.16-.1-.31-.2-.47-.3.16.1.31.2.47.3"></path><path class="cls-5" d="m19.7,89.28c-.24-.19-.48-.38-.72-.57.24.19.48.38.72.57"></path><path class="cls-5" d="m97.85,37.48c.61,2.42,1.04,4.89,1.28,7.37-.24-2.47-.66-4.93-1.28-7.37"></path><path class="cls-5" d="m99.16,45.14c.11,1.21.18,2.43.2,3.65-.02-1.21-.09-2.43-.2-3.65"></path><path class="cls-5" d="m99.36,49.28c0,1.06-.02,2.12-.08,3.17.06-1.05.08-2.11.08-3.17"></path><path class="cls-2" d="m50.15,78.79c-.57.32-1.14.64-1.73.94-11.2,5.76-23.56,6.85-34.89,4,.16.17.33.35.49.52.63.65,1.27,1.28,1.93,1.89.31.29.63.57.94.85.68.6,1.37,1.17,2.08,1.73.24.19.48.38.72.57.91.68,1.83,1.34,2.78,1.96.16.1.31.2.47.3,5.49,3.5,11.6,5.88,17.97,7.03,0,0,.02,0,.03,0,2.45.44,4.94.68,7.45.75.23,0,.46.01.7.02,1.19.02,2.38,0,3.57-.08.16-.01.33-.03.49-.04,1.08-.08,2.16-.19,3.25-.33.21-.03.43-.06.64-.09,5.22-.78,10.41-2.41,15.37-4.96,2.22-1.15,4.32-2.44,6.29-3.86.08-.06.16-.11.23-.16.49-.36.97-.73,1.45-1.11.22-.17.44-.34.65-.52.37-.3.72-.6,1.08-.91.3-.26.61-.52.9-.79.29-.26.58-.54.86-.81.33-.32.66-.63.99-.96.26-.26.52-.53.78-.8.32-.33.63-.67.94-1.01.11-.12.21-.25.32-.37-4.35,1.25-8.95,1.93-13.7,1.93-8.33,0-16.18-2.06-23.07-5.68"></path><path class="cls-3" d="m97.47,63.2c.12-.42.23-.83.34-1.25.17-.67.33-1.34.48-2.02.17-.8.32-1.6.45-2.41.07-.47.14-.94.2-1.41.13-1.01.25-2.02.32-3.04.01-.21.02-.41.03-.62.06-1.06.09-2.12.08-3.17,0-.16,0-.33,0-.49-.02-1.22-.09-2.44-.2-3.65,0-.09-.02-.19-.03-.28-.24-2.48-.67-4.95-1.28-7.37-.03-.14-.07-.28-.1-.41-.3-1.16-.65-2.31-1.04-3.46-.06-.17-.12-.34-.18-.51-.33-.93-.69-1.85-1.07-2.75-.13-.29-.24-.59-.37-.89-.43-.97-.89-1.92-1.39-2.86-.2-.37-.4-.74-.61-1.1-.4-.73-.82-1.44-1.26-2.15-.18-.29-.36-.59-.55-.87-.64-.99-1.32-1.96-2.05-2.9-.09-.12-.19-.24-.29-.37-2.44-3.13-5.28-6.03-8.54-8.59-2.68-2.1-5.51-3.89-8.44-5.36-.03-.01-.05-.03-.08-.04-.58-.29-1.16-.56-1.75-.82-.2-.09-.41-.19-.61-.28-.48-.21-.97-.41-1.46-.6-.3-.12-.6-.24-.9-.36-.46-.17-.91-.33-1.37-.48-.33-.11-.66-.23-.99-.33-.48-.15-.96-.29-1.45-.43-.29-.08-.59-.17-.89-.25-.2-.05-.4-.1-.59-.15,3.1,3.3,5.81,7.07,7.98,11.29,3.94,7.65,5.7,15.84,5.51,23.88.74.52,1.48,1.06,2.2,1.63,9.9,7.78,16.03,18.56,18.14,30.03.14-.34.28-.68.41-1.02.13-.34.25-.68.37-1.02.36-1.02.69-2.06.99-3.1"></path></g><g><circle class="cls-6" cx="311.44" cy="62.69" r="2.6"></circle><path class="cls-2" d="m312.86,64.07h-.66l-.86-.99h-.53v.99h-.56v-2.95c.47,0,.93,0,1.4,0,.69,0,1.06.47,1.06.98,0,.4-.19.81-.75.93l.89,1.01v.04Zm-2.05-2.43v.94h.85c.35,0,.5-.24.5-.47s-.16-.47-.5-.47h-.85Z"></path></g></g></g></svg> 